<svg aria-hidden="true" style="position: absolute; width: 0; height: 0; overflow: hidden;" version="1.1" xmlns="http://www.w3.org/2000/svg" xmlns:xlink="http://www.w3.org/1999/xlink">
	<defs>
		<symbol id="icon-facebook" viewBox="0 0 11 20">
			<path fill-rule="evenodd" clip-rule="evenodd" d="M11 0H8a5 5 0 00-5 5v3H0v4h3v8h4v-8h3l1-4H7V5a1 1 0 011-1h3V0z">
			</path>
		</symbol>
		<symbol id="icon-twitter" viewBox="0 0 20 17">
			<path fill-rule="evenodd" clip-rule="evenodd" d="M20 .01a9.91 9.91 0 01-2.855 1.39A4.073 4.073 0 0010 4.128v.909A9.69 9.69 0 011.818.918S-1.818 9.1 6.364 12.737A10.582 10.582 0 010 14.555c8.182 4.545 18.182 0 18.182-10.455a4.056 4.056 0 00-.073-.754A7.018 7.018 0 0020 .009z">
			</path>
		</symbol>
		<symbol id="icon-arrow-left" viewBox="0 0 16 16">
			<path d="M15 8H1m7 7L1 8l7-7" stroke-width="2" stroke-linecap="round" stroke-linejoin="round">
			</path>
		</symbol>
		<symbol id="icon-arrow-right" viewBox="0 0 16 16">
			<path d="M1 8h14M8 1l7 7-7 7" stroke-width="2" stroke-linecap="round" stroke-linejoin="round">
			</path>
		</symbol>
		<symbol id="icon-play" viewBox="0 0 34 44">
			<path clip-rule="evenodd" d="M1 1l32 20.571L1 42.143V1v0z" stroke-width="2" stroke-linecap="round" stroke-linejoin="round">
			</path>
		</symbol>
		<symbol id="icon-search" viewBox="0 0 20 20">
			<path fill-rule="evenodd" clip-rule="evenodd" d="M9 17C13.4183 17 17 13.4183 17 9C17 4.58172 13.4183 1 9 1C4.58172 1 1 4.58172 1 9C1 13.4183 4.58172 17 9 17Z" stroke-width="2" stroke-linecap="round" stroke-linejoin="round">
			</path>
			<path d="M19 19L14.65 14.65" stroke-width="2" stroke-linecap="round" stroke-linejoin="round">
			</path>
		</symbol>
		<symbol id="icon-burger" viewBox="0 0 48 10">
			<path d="M0 0h48v2H0zm0 8h48v2H0z">
			</path>
		</symbol>
		<symbol id="icon-video-play" viewBox="0 0 112 112">
			<path fill-rule="evenodd" clip-rule="evenodd" d="M56 112c30.928 0 56-25.072 56-56S86.928 0 56 0 0 25.072 0 56s25.072 56 56 56z" fill="#E8594E">
			</path>
			<path fill-rule="evenodd" clip-rule="evenodd" d="M46 41l24 15.429-24 15.428V41z" fill="#fff">
			</path>
		</symbol>
		<symbol id="icon-video-play-o" viewBox="0 0 68 68">
			<path clip-rule="evenodd" d="M34 66c17.673 0 32-14.327 32-32C66 16.327 51.673 2 34 2 16.327 2 2 16.327 2 34c0 17.673 14.327 32 32 32z" stroke="#fff" stroke-width="4">
			</path>
			<path clip-rule="evenodd" d="M27 24l16 10.286L27 44.57V24v0z" stroke="#fff" stroke-width="4" stroke-linecap="round" stroke-linejoin="round">
			</path>
		</symbol>
		<symbol id="icon-user" viewBox="0 0 18 20">
			<path d="M17 19v-2a4 4 0 00-4-4H5a4 4 0 00-4 4v2" stroke-width="2" stroke-linecap="round" stroke-linejoin="round">
			</path>
			<path clip-rule="evenodd" d="M9 9a4 4 0 100-8 4 4 0 000 8z" stroke-width="2" stroke-linecap="round" stroke-linejoin="round">
			</path>
		</symbol>
	</defs>
</svg>
